<svg xmlns="http://www.w3.org/2000/svg" width="510" height="373" fill="none" viewBox="0 0 510 373">
  <path fill="#000" fill-rule="evenodd" d="M216.129 82.568V3h78.147v79.568h-35.379l-.142 27.281v27.28l24.439 24.581 24.58 24.581h164.11v103.012l17.761 11.367 17.76 11.367v57.545h-79.568l.284-28.702.427-28.843 17.334-11.367 17.477-11.367v-94.487H306.354l-23.729 23.728-23.87 23.871v46.178l18.471 12.219 18.471 12.22-.284 27.991-.426 27.848-40.069.427-40.21.284v-56.835l18.471-12.219 18.471-12.219v-46.178l-23.586-23.729-23.728-23.586H47.047l.284 47.173.426 47.172 18.187 12.077 18.045 12.078-.284 27.707-.426 27.848-18.045.427-18.187.426V370H24.719a374.69 374.69 0 0 0-3.958-.134L3 369.44v-56.693l17.76-11.651 17.62-11.793.426-51.151.426-51.151 82.41-.426 82.268-.284 23.87-23.87 23.87-23.729V82.569h-35.521Zm71.043-8.525V11.525h-63.939v62.518h63.939ZM255.203 234.6l22.449-22.449 22.308-22.308-22.45-22.449-22.307-22.308-22.45 22.45-22.307 22.307 22.449 22.45 22.308 22.307ZM75.322 316.3l-15.488-9.946c-8.525-5.4-15.913-9.946-16.624-10.231-.568-.142-8.383 4.547-17.05 10.231l-16.056 10.514v44.189h65.36v-22.45l-.142-22.307Zm211.85 0-15.629-10.373c-8.668-5.541-16.056-10.23-16.625-10.088-.71 0-7.956 4.689-16.339 10.23L223.233 316.3v44.757h63.939V316.3Zm212.419.142-15.63-10.373c-8.525-5.683-15.914-10.372-16.34-10.372-.426 0-7.957 4.831-16.624 10.657l-16.056 10.656v44.047h65.502l-.426-22.308-.426-22.307Z" clip-rule="evenodd"/>
  <path fill="#000" d="M216.129 82.568h-2.5v2.5h2.5v-2.5Zm0-79.568V.5h-2.5V3h2.5Zm78.147 0h2.5V.5h-2.5V3Zm0 79.568v2.5h2.5v-2.5h-2.5Zm-35.379 0v-2.5h-2.487l-.013 2.487 2.5.013Zm-.142 27.281-2.5-.013v.013h2.5Zm0 27.28h-2.5v1.031l.727.732 1.773-1.763Zm24.439 24.581-1.773 1.763.005.005 1.768-1.768Zm24.58 24.581-1.767 1.768.732.732h1.035v-2.5Zm164.11 0h2.5v-2.5h-2.5v2.5Zm0 103.012h-2.5v1.368l1.152.738 1.348-2.106Zm17.761 11.367 1.347-2.106-1.347 2.106Zm17.76 11.367h2.5v-1.368l-1.152-.738-1.348 2.106Zm0 57.545v2.5h2.5v-2.5h-2.5Zm-79.568 0-2.5-.025-.025 2.525h2.525v-2.5Zm.284-28.702-2.499-.036-.001.012 2.5.024Zm.427-28.843-1.371-2.091-1.11.728-.019 1.326 2.5.037Zm17.334-11.367-1.363-2.096-.008.006 1.371 2.09Zm17.477-11.367 1.363 2.096 1.137-.739v-1.357h-2.5Zm0-94.487h2.5v-2.5h-2.5v2.5Zm-157.005 0v-2.5h-1.036l-.732.732 1.768 1.768Zm-47.599 47.599-1.768-1.768-.732.732v1.036h2.5Zm0 46.178h-2.5v1.344l1.12.741 1.38-2.085Zm18.471 12.219 1.379-2.085-1.379 2.085Zm18.471 12.22 2.5.025.014-1.36-1.135-.75-1.379 2.085Zm-.284 27.991 2.5.038v-.013l-2.5-.025Zm-.426 27.848.026 2.5 2.436-.026.037-2.435-2.499-.039Zm-40.069.427.018 2.5h.009l-.027-2.5Zm-40.21.284h-2.5v2.518l2.518-.018-.018-2.5Zm0-56.835-1.379-2.085-1.121.742v1.343h2.5Zm36.942-24.438 1.38 2.085 1.12-.742v-1.343h-2.5Zm0-46.178h2.5V241.1l-.726-.732-1.774 1.763Zm-23.586-23.729 1.773-1.762-.005-.005-.005-.006-1.763 1.773Zm-23.728-23.586 1.762-1.773-.731-.727h-1.031v2.5Zm-157.29 0v-2.5h-2.514l.015 2.515 2.5-.015Zm.285 47.173-2.5.015v.007l2.5-.022Zm.426 47.172-2.5.023.012 1.326 1.105.734 1.383-2.083Zm18.187 12.077 1.39-2.077-.007-.005-1.383 2.082Zm18.045 12.078 2.5.025.014-1.351-1.124-.752-1.39 2.078Zm-.284 27.707 2.5.038v-.013l-2.5-.025Zm-.426 27.848.059 2.5 2.404-.057.036-2.404-2.5-.039Zm-18.045.427.058 2.499-.058-2.499Zm-18.187.426-.059-2.499-2.441.057v2.442h2.5Zm0 .276v2.5h2.5V370h-2.5Zm-22.328 0-.097 2.498.049.002h.048V370Zm-3.958-.134.072-2.499h-.012l-.06 2.499ZM3 369.44H.5v2.441l2.44.058.06-2.499Zm0-56.693-1.371-2.09-1.129.741v1.349H3Zm17.76-11.651 1.372 2.091.01-.007.01-.006-1.391-2.078Zm17.62-11.793 1.39 2.078 1.098-.735.011-1.322-2.5-.021Zm.852-102.302-.013-2.5-2.466.013-.021 2.467 2.5.02Zm82.41-.426-.009-2.5h-.004l.013 2.5Zm82.268-.284.008 2.5 1.031-.004.728-.728-1.767-1.768Zm23.87-23.87-1.762-1.774-.006.006 1.768 1.768Zm23.87-23.729 1.763 1.773.737-.733v-1.04h-2.5Zm0-56.124h2.5v-2.5h-2.5v2.5Zm35.522-8.525v2.5h2.5v-2.5h-2.5Zm0-62.518h2.5v-2.5h-2.5v2.5Zm-63.939 0v-2.5h-2.5v2.5h2.5Zm0 62.518h-2.5v2.5h2.5v-2.5Zm54.419 138.108-1.768-1.768 1.768 1.768ZM255.203 234.6l-1.768 1.768 1.768 1.768 1.767-1.768-1.767-1.768Zm44.757-44.757 1.768 1.768 1.767-1.768-1.767-1.768-1.768 1.768Zm-22.45-22.449 1.768-1.768-1.768 1.768Zm-22.307-22.308 1.767-1.768-1.767-1.768-1.768 1.768 1.768 1.768Zm-22.45 22.45 1.768 1.767-1.768-1.767Zm-22.307 22.307-1.768-1.768-1.768 1.768 1.768 1.768 1.768-1.768Zm22.449 22.45-1.768 1.767 1.768-1.767Zm-173.06 94.061 1.35-2.104-.006-.004-.007-.004-1.338 2.112Zm15.487 9.946 2.5-.016-.009-1.356-1.14-.732-1.351 2.104ZM43.21 296.123l.929-2.321-.158-.063-.164-.041-.607 2.425Zm-17.05 10.231 1.37 2.091v-.001l-1.37-2.09Zm-16.056 10.514-1.37-2.091-1.13.74v1.351h2.5Zm0 44.189h-2.5v2.5h2.5v-2.5Zm65.36 0v2.5h2.5v-2.5h-2.5Zm0-22.45h2.5v-.016l-2.5.016Zm196.079-32.68 1.382-2.083-.018-.011-.018-.012-1.346 2.106Zm15.629 10.373h2.5v-1.342l-1.118-.741-1.382 2.083Zm-32.254-20.461v2.5h.308l.299-.074-.607-2.426Zm-16.339 10.23-1.379-2.085-.008.005 1.387 2.08ZM223.233 316.3l-1.386-2.081-1.114.743v1.338h2.5Zm0 44.757h-2.5v2.5h2.5v-2.5Zm63.939 0v2.5h2.5v-2.5h-2.5Zm196.789-54.988-1.387 2.081.005.002 1.382-2.083Zm15.63 10.373 2.499-.048-.025-1.311-1.092-.724-1.382 2.083Zm-48.594-10.088 1.383 2.083.006-.004.006-.005-1.395-2.074Zm-16.056 10.656-1.382-2.083-1.118.742v1.341h2.5Zm0 44.047h-2.5v2.5h2.5v-2.5Zm65.502 0v2.5h2.548l-.048-2.548-2.5.048Zm-.426-22.308-2.5.048 2.5-.048ZM213.629 42.784v39.784h5V42.784h-5Zm0-39.784v39.784h5V3h-5ZM255.203.5h-39.074v5h39.074v-5Zm39.073 0h-39.073v5h39.073v-5Zm2.5 42.284V3h-5v39.784h5Zm0 39.784V42.784h-5v39.784h5Zm-20.118 2.5h17.618v-5h-17.618v5Zm-17.761 0h17.761v-5h-17.761v5Zm2.358 24.794.142-27.28-5-.027-.142 27.281 5 .026Zm0 27.267v-27.28h-5v27.28h5Zm23.711 22.818-24.438-24.58-3.546 3.525 24.439 24.581 3.545-3.526Zm24.576 24.576-24.581-24.581-3.535 3.536 24.581 24.581 3.535-3.536Zm80.216-.732h-81.984v5h81.984v-5Zm82.126 0h-82.126v5h82.126v-5Zm2.5 53.935v-51.435h-5v51.435h5Zm0 51.577v-51.577h-5v51.577h5Zm16.608 9.261-17.761-11.366-2.695 4.211 17.761 11.367 2.695-4.212Zm17.761 11.367-17.761-11.367-2.695 4.212 17.761 11.367 2.695-4.212Zm1.152 30.807v-28.701h-5v28.701h5Zm0 28.844v-28.844h-5v28.844h5Zm-42.284 2.5h39.784v-5h-39.784v5Zm-39.784 0h39.784v-5h-39.784v5Zm-2.216-31.226-.284 28.701 5 .05.284-28.702-5-.049Zm.427-28.856-.426 28.844 4.999.073.426-28.843-4.999-.074Zm18.463-13.42-17.334 11.366 2.741 4.182 17.335-11.367-2.742-4.181Zm17.485-11.372-17.477 11.366 2.726 4.192 17.477-11.367-2.726-4.191Zm-1.137-45.219v47.314h5v-47.314h-5Zm0-47.173v47.173h5v-47.173h-5Zm-75.932 2.5h78.432v-5h-78.432v5Zm-78.573 0h78.573v-5h-78.573v5Zm-21.961 22.996 23.728-23.728-3.535-3.536-23.729 23.729 3.536 3.535Zm-23.87 23.871 23.87-23.871-3.536-3.535-23.87 23.87 3.536 3.536Zm.732 21.392v-23.16h-5v23.16h5Zm0 23.018v-23.018h-5v23.018h5Zm17.35 10.134-18.471-12.219-2.759 4.17 18.472 12.219 2.758-4.17Zm18.471 12.22-18.471-12.22-2.758 4.17 18.471 12.22 2.758-4.17Zm.837 30.101.284-27.991-5-.051-.284 27.991 5 .051Zm-.427 27.862.427-27.849-5-.077-.426 27.849 4.999.077Zm-42.541 2.888 40.068-.427-.053-4.999-40.068.426.053 5Zm-40.219.284 40.21-.284-.035-5-40.211.284.036 5Zm-2.518-30.917v28.417h5v-28.417h-5Zm0-28.418v28.418h5v-28.418h-5Zm19.592-14.304-18.471 12.219 2.758 4.171 18.472-12.22-2.759-4.17Zm18.471-12.219L231.8 298.443l2.759 4.17 18.471-12.219-2.759-4.17Zm-1.121-21.075v23.16h5v-23.16h-5Zm0-23.018v23.018h5v-23.018h-5Zm-22.859-21.966 23.586 23.728 3.547-3.525-23.587-23.728-3.546 3.525Zm-23.718-23.576 23.729 23.586 3.525-3.546-23.729-23.586-3.525 3.546Zm-76.953.727h78.716v-5H125.62v5Zm-78.573 0h78.573v-5H47.047v5Zm2.784 44.658-.284-47.173-5 .03.284 47.173 5-.03Zm.426 47.165-.426-47.173-5 .045.426 47.173 5-.045Zm17.07 10.017L49.14 287.079l-2.766 4.165 18.187 12.077 2.766-4.165Zm18.052 12.082-18.044-12.077-2.781 4.155 18.044 12.077 2.781-4.155Zm.826 29.81.284-27.707-5-.051-.284 27.707 5 .051Zm-.427 27.862.427-27.849-5-.077-.426 27.849 5 .077Zm-20.485 2.887 18.045-.426-.118-4.999-18.045.426.118 4.999Zm-18.188.426 18.187-.426-.117-4.999-18.187.427.117 4.998ZM49.547 370v-.276h-5V370h5Zm-24.828 2.5h22.328v-5H24.719v5Zm-4.03-.135c1.352.039 2.669.084 3.933.133l.195-4.996a409.42 409.42 0 0 0-3.984-.135l-.145 4.998Zm-17.749-.426 17.76.426.12-4.998-17.76-.426-.12 4.998ZM.5 341.165v28.275h5v-28.275h-5Zm0-28.418v28.418h5v-28.418h-5Zm18.89-13.741L1.629 310.657l2.742 4.181 17.761-11.651-2.742-4.181Zm17.599-11.78L19.37 299.019l2.781 4.155 17.619-11.793-2.781-4.155Zm-.683-49.095-.426 51.151 5 .042.426-51.151-5-.042Zm.426-51.15-.426 51.15 5 .042.426-51.151-5-.041Zm84.897-2.906-82.41.426.026 5 82.41-.426-.026-5Zm82.272-.284-82.268.284.017 5 82.268-.284-.017-5Zm22.111-23.138-23.87 23.87 3.535 3.536 23.871-23.871-3.536-3.535Zm23.876-23.734-23.87 23.728 3.525 3.547 23.87-23.729-3.525-3.546Zm-.738-26.36v28.133h5v-28.133h-5Zm0-27.99v27.99h5v-27.99h-5Zm-15.26 2.5h17.76v-5h-17.76v5Zm-17.761 0h17.761v-5h-17.761v5Zm68.543-42.285v31.259h5V42.784h-5Zm0-31.259v31.26h5v-31.26h-5Zm-29.469 2.5h31.969v-5h-31.969v5Zm-31.97 0h31.97v-5h-31.97v5Zm2.5 28.76v-31.26h-5v31.26h5Zm0 31.258V42.784h-5v31.259h5Zm29.47-2.5h-31.97v5h31.97v-5Zm31.969 0h-31.969v5h31.969v-5Zm-11.288 138.84-22.449 22.449 3.535 3.536 22.45-22.45-3.536-3.535Zm22.308-22.308-22.308 22.308 3.536 3.535 22.308-22.307-3.536-3.536Zm-22.45-18.914 22.45 22.45 3.536-3.536-22.45-22.449-3.536 3.535Zm-22.307-22.307 22.307 22.307 3.536-3.535-22.308-22.308-3.535 3.536Zm-18.914 22.449 22.449-22.449-3.535-3.536-22.45 22.45 3.536 3.535Zm-22.308 22.308 22.308-22.308-3.536-3.535-22.307 22.307 3.535 3.536Zm22.45 18.914-22.45-22.45-3.535 3.536 22.449 22.449 3.536-3.535Zm22.307 22.307-22.307-22.307-3.536 3.535 22.308 22.308 3.535-3.536ZM58.483 308.457l15.488 9.946 2.702-4.207-15.488-9.946-2.702 4.207Zm-16.201-10.012c-.1-.04-.064-.033.267.154.263.149.626.361 1.082.632.91.541 2.154 1.298 3.65 2.219 2.99 1.84 6.96 4.32 11.216 7.016l2.675-4.224c-4.27-2.704-8.257-5.197-11.27-7.051a310.828 310.828 0 0 0-3.715-2.257c-.47-.279-.868-.512-1.178-.687a8.234 8.234 0 0 0-.87-.445l-1.857 4.643Zm-14.751 9.999c4.313-2.828 8.404-5.402 11.477-7.246a93.963 93.963 0 0 1 3.699-2.132 15.8 15.8 0 0 1 .972-.49c.105-.046.121-.048.078-.035-.02.007-.109.034-.241.054-.082.013-.448.07-.912-.046l1.213-4.851a2.693 2.693 0 0 0-1.061-.045c-.196.03-.361.076-.472.11-.225.07-.443.159-.623.239a20 20 0 0 0-1.317.658c-1 .536-2.34 1.31-3.908 2.25-3.143 1.886-7.292 4.498-11.647 7.353l2.742 4.181Zm-16.057 10.515 16.056-10.514-2.74-4.183-16.055 10.515 2.739 4.182Zm1.13 20.074v-22.165h-5v22.165h5Zm0 22.024v-22.024h-5v22.024h5Zm30.18-2.5h-32.68v5h32.68v-5Zm32.68 0h-32.68v5h32.68v-5Zm-2.5-19.95v22.45h5v-22.45h-5Zm-.142-22.291.142 22.307 5-.032-.142-22.307-5 .032Zm197.338-8.306 15.63 10.373 2.764-4.166-15.629-10.373-2.765 4.166Zm-14.635-9.745a2.325 2.325 0 0 1-.923.044 1.644 1.644 0 0 1-.258-.059c-.052-.017-.044-.018.054.027.184.084.486.24.922.483.859.479 2.069 1.202 3.563 2.121 2.98 1.834 6.976 4.38 11.313 7.153l2.693-4.213c-4.33-2.768-8.362-5.338-11.385-7.198-1.508-.928-2.793-1.697-3.75-2.23a19.03 19.03 0 0 0-1.271-.661 5.764 5.764 0 0 0-.62-.246 3.397 3.397 0 0 0-.482-.116 2.69 2.69 0 0 0-1.069.044l1.213 4.851Zm-15.568 9.89c4.19-2.77 8.08-5.315 11.005-7.166a112.098 112.098 0 0 1 3.534-2.166c.437-.253.755-.426.964-.528.107-.053.147-.068.136-.064a1.245 1.245 0 0 1-.135.042c-.057.014-.261.066-.543.066v-5c-.545 0-.994.179-1.094.217a6.735 6.735 0 0 0-.572.252c-.356.176-.786.413-1.259.686-.954.552-2.222 1.332-3.704 2.27-2.971 1.879-6.896 4.448-11.089 7.22l2.757 4.171ZM224.62 318.38l15.345-10.23-2.773-4.161-15.345 10.23 2.773 4.161Zm1.113 20.227V316.3h-5v22.307h5Zm0 22.45v-22.45h-5v22.45h5Zm29.47-2.5h-31.97v5h31.97v-5Zm31.969 0h-31.969v5h31.969v-5Zm-2.5-19.95v22.45h5v-22.45h-5Zm0-22.307v22.307h5V316.3h-5Zm197.907-8.148 15.629 10.373 2.765-4.166-15.63-10.373-2.764 4.166Zm-14.958-9.955c-.424 0-.735-.116-.741-.118a1.533 1.533 0 0 1-.085-.029l.118.062c.21.113.53.296.962.554.856.511 2.064 1.26 3.539 2.197a617.695 617.695 0 0 1 11.16 7.287l2.774-4.161a634.819 634.819 0 0 0-11.254-7.348 163.786 163.786 0 0 0-3.658-2.269 31.299 31.299 0 0 0-1.157-.665 7.755 7.755 0 0 0-.474-.237 3.661 3.661 0 0 0-.323-.127c-.058-.02-.41-.146-.861-.146v5Zm-15.229 10.231a670.093 670.093 0 0 1 11.357-7.483 174.637 174.637 0 0 1 3.605-2.262c.44-.265.766-.454.981-.571l.122-.065.04-.02a1.358 1.358 0 0 1-.121.048c-.002 0-.32.122-.755.122v-5c-.461 0-.82.132-.876.151a3.541 3.541 0 0 0-.323.13 7.893 7.893 0 0 0-.477.242c-.312.17-.713.404-1.174.683a174.01 174.01 0 0 0-3.721 2.333 668.064 668.064 0 0 0-11.447 7.543l2.789 4.149Zm-16.068 10.665 16.056-10.656-2.765-4.166-16.056 10.656 2.765 4.166Zm1.117 19.94V317.01h-5v22.023h5Zm0 22.024v-22.024h-5v22.024h5Zm30.18-2.5h-32.68v5h32.68v-5Zm32.822 0h-32.822v5h32.822v-5Zm-2.926-19.76.427 22.307 4.999-.095-.427-22.308-4.999.096Zm-.426-22.308.426 22.308 4.999-.096-.426-22.307-4.999.095Z"/>
</svg>
