<?xml version="1.0" standalone="no"?>
<!DOCTYPE svg PUBLIC "-//W3C//DTD SVG 20010904//EN"
 "http://www.w3.org/TR/2001/REC-SVG-20010904/DTD/svg10.dtd">
<svg version="1.0" xmlns="http://www.w3.org/2000/svg"
 width="225.000000pt" height="225.000000pt" viewBox="0 0 225.000000 225.000000"
 preserveAspectRatio="xMidYMid meet">

<g transform="translate(0.000000,225.000000) scale(0.100000,-0.100000)"
fill="#000000" stroke="none">
<path d="M955 2170 c-382 -54 -708 -322 -828 -680 -42 -128 -52 -188 -51 -335
0 -160 19 -254 77 -392 97 -231 306 -442 530 -535 314 -132 638 -111 932 60
113 66 282 237 351 354 108 183 159 419 136 621 -29 243 -115 428 -281 600
-189 197 -423 302 -691 312 -63 2 -142 0 -175 -5z m370 -89 c88 -23 219 -82
293 -132 187 -128 333 -332 394 -555 31 -113 31 -354 0 -467 -93 -339 -351
-597 -692 -689 -118 -32 -346 -32 -463 0 -338 92 -597 351 -689 687 -31 115
-31 355 0 470 99 361 390 631 755 701 101 19 299 12 402 -15z"/>
<path d="M970 1854 c-209 -40 -401 -179 -499 -363 -60 -114 -76 -183 -76 -331
0 -115 3 -145 23 -205 106 -316 384 -510 706 -492 168 9 305 64 433 174 56 47
65 75 31 96 -13 9 -25 3 -62 -31 -70 -64 -156 -116 -238 -143 -62 -20 -92 -24
-203 -24 -109 1 -140 5 -195 24 -187 66 -341 221 -401 402 -21 64 -24 92 -24
209 1 123 3 141 28 205 98 247 307 402 560 413 158 7 259 -20 389 -105 60 -40
168 -145 168 -165 0 -4 -44 -9 -97 -10 -95 -3 -98 -4 -101 -27 -2 -13 2 -28
10 -32 21 -14 272 -11 286 3 8 8 12 57 12 154 0 135 -1 143 -20 149 -37 12
-50 -11 -50 -91 l0 -74 -63 64 c-77 77 -180 139 -284 173 -62 20 -102 26 -193
29 -63 1 -126 0 -140 -2z"/>
<path d="M1073 1683 c-10 -3 -13 -59 -13 -230 0 -210 -1 -227 -20 -250 -11
-14 -20 -35 -20 -47 0 -12 -31 -52 -81 -102 -82 -82 -92 -106 -53 -121 11 -4
40 19 98 76 54 54 89 81 104 81 28 0 72 42 72 68 0 11 -9 31 -20 45 -19 23
-20 40 -20 250 0 196 -2 226 -16 231 -9 3 -16 6 -17 5 -1 0 -8 -3 -14 -6z"/>
<path d="M867 1633 c-12 -12 -7 -43 13 -83 21 -41 27 -44 54 -34 22 8 20 37
-4 84 -19 37 -46 51 -63 33z"/>
<path d="M717 1529 c-26 -15 -20 -37 21 -75 63 -58 114 -24 55 38 -38 40 -55
48 -76 37z"/>
<path d="M610 1365 c-19 -23 -4 -44 45 -66 37 -16 49 -18 61 -9 28 24 16 50
-32 70 -55 24 -58 24 -74 5z"/>
<path d="M567 1175 c-14 -35 3 -46 67 -43 58 3 61 4 61 28 0 24 -3 25 -61 28
-48 2 -63 0 -67 -13z"/>
<path d="M1484 1175 c-13 -33 4 -45 59 -45 58 0 82 15 71 44 -9 22 -122 23
-130 1z"/>
<path d="M652 1020 c-48 -22 -62 -45 -39 -67 14 -14 20 -14 62 3 50 19 64 37
48 62 -14 23 -24 24 -71 2z"/>
<path d="M1656 876 c-29 -59 -26 -86 10 -86 19 0 30 11 51 54 29 60 26 86 -11
86 -19 0 -29 -11 -50 -54z"/>
<path d="M736 867 c-40 -39 -45 -61 -16 -77 16 -9 26 -4 60 26 28 25 40 44 38
58 -5 34 -41 31 -82 -7z"/>
<path d="M1067 764 c-4 -4 -7 -33 -7 -65 0 -43 4 -58 16 -63 31 -12 45 13 42
73 -3 48 -6 56 -23 59 -12 2 -24 0 -28 -4z"/>
</g>
</svg>
