<svg xmlns="http://www.w3.org/2000/svg" width="551" height="1228" fill="none" viewBox="0 0 551 1228">
  <path stroke="#1E1E1E" stroke-width="3" d="m380.577 169.229-80.879 6.639c-8.209-12.071-25.954-89.53-28.972-115.886C275.555 40.064 293.421.59 328.669 2.039c35.249 1.448 50.499 22.734 53.718 33.196 15.452 48.77 5.231 109.65-1.81 133.994Z"/>
  <path stroke="#1E1E1E" stroke-width="3" d="M308.751 175.265c-.402 11.266.121 34.886 5.433 39.232 17.704-4.024 54.683-12.072 60.961-12.072 1.609-5.834 3.38-20.28-2.415-31.385l-1.207-1.208m3.622 32.593 6.639.604c12.273-2.213 40.319-3.139 54.322 10.864m0 0c-8.249 6.841-23.419 23.66-18.108 36.215 5.312 12.554 14.285 18.912 18.108 20.521l1.207 1.811 45.268-15.693c5.03-6.237 12.313-21.729 1.207-33.8-11.106-12.072-36.416-11.066-47.682-9.054Z"/>
  <path stroke="#1E1E1E" stroke-width="3" d="M483.184 257.351c8.45 17.302 26.678 59.15 31.99 88.122 5.311 28.971 13.077 56.736 16.296 66.996.604 2.415-.121 7.847-7.846 10.261-7.726 2.414-21.729 7.444-27.765 9.657-2.213.403-7.243 0-9.657-4.828-3.018-6.036-15.089-46.476-20.521-53.718-5.433-7.243-15.693-36.215-16.9-41.044-.966-3.862-9.255-37.824-13.279-54.321-.403-1.811-.604-5.553 1.811-6.036"/>
  <path stroke="#1E1E1E" stroke-width="3" d="M314.184 214.497c-10.06 2.414-31.386 8.088-36.215 11.468-6.036 4.225-21.125 15.089-21.125 16.9 0 1.811-1.207 11.468-.604 14.486.604 3.017 11.468 85.707 18.108 96.571 6.639 10.865 17.503 44.665 31.989 53.115 14.486 8.45 17.504 12.071 24.747 10.261 7.243-1.811 84.5-13.279 92.346-14.486 7.847-1.207 30.179-26.557 27.161-64.582"/>
  <path stroke="#1E1E1E" stroke-width="3" d="M264.69 312.879c-4.023 3.22-14.968 8.209-26.557 2.415-11.588-5.795-16.497-17.303-17.503-22.332-.403-7.042 1.931-22.212 14.485-26.558 5.231-2.615 16.659-7.967 20.522-8.45"/>
  <path stroke="#1E1E1E" stroke-width="3" d="M232.701 266.404c-.604 0-36.214-7.243-52.511-6.035-16.296 1.207-56.132 6.035-58.547 6.035-1.931 0-8.45-.805-11.467-1.207-3.823.805-11.468 3.742-11.468 9.054 0 5.311-2.012 17.906-3.018 23.539.805 4.627 4.587 13.762 13.278 13.279 10.865-.604 54.926 6.035 60.358 6.639 5.432.604 26.557 1.811 40.439 0 13.882-1.811 24.747-3.018 25.35-3.621"/>
  <path stroke="#1E1E1E" stroke-width="3" d="M107.761 311.672c-2.414 2.817-8.812 7.726-15.09 4.829-7.846-3.622-15.692-10.261-18.71-18.711-3.018-8.45-3.018-15.693-3.018-17.504 0-1.448 5.231-.603 7.847 0 6.237-3.621 19.193-10.985 21.125-11.467 1.931-.483 3.219-1.006 3.621-1.208"/>
  <path stroke="#1E1E1E" stroke-width="3" d="M110.176 265.197c-3.018-20.119-10.02-61.927-13.883-68.204-3.863-6.277-16.497-42.854-22.332-60.357-1.61-5.634-5.19-17.021-6.64-17.504-1.448-.483-4.627.604-6.035 1.207-5.432 2.817-17.383 8.209-21.729 7.243-4.345-.966-9.456.403-11.468 1.207-.804 1.61-1.931 5.915 0 10.261 2.415 5.432 12.072 55.529 13.279 62.168 1.207 6.64 20.522 70.618 26.557 76.051l3.018 2.414M63.7 119.132c.201-6.84-1.207-21.366-8.45-24.746-7.243-3.38-22.734 1.81-29.575 4.828-1.006 4.024-2.414 13.279 0 18.107 3.018 6.036 3.018 8.45 5.432 10.261"/>
  <path stroke="#1E1E1E" stroke-width="3" d="M54.647 93.782c2.615-11.066 6.518-37.06 1.207-52.51-6.64-19.315-10.26-28.972-20.522-30.783-8.208-1.449-15.894 2.213-18.71 4.225C11.189 21.354.687 37.288 2.136 47.91c1.81 13.279 10.26 33.197 13.278 36.818 3.018 3.622 9.658 12.675 10.261 13.883m502.174 322.308c4.426 3.219 13.158 13.52 12.675 28.972-1.61-3.622-8.329-10.623-22.332-9.657-14.003.965-21.93 6.84-24.143 9.657l-1.208 2.414c-1.005-5.633-2.172-17.986 1.208-19.918"/>
  <path stroke="#1E1E1E" stroke-width="3" d="M539.92 447.477c3.219 11.467 9.537 40.198 9.054 53.718-.483 13.52-3.42 57.943-4.829 78.464-1.006-5.231-6.035-15.934-18.107-16.9-12.071-.966-22.332 6.438-25.954 10.261l-4.225 9.657c-1.408-3.621-3.983-12.071-3.018-16.9 1.208-6.036-9.053-53.114-6.035-63.375.804-13.48 3.259-43.578 6.639-51.304"/>
  <path stroke="#1E1E1E" stroke-width="3" d="m495.859 582.743 1.834 11.647c2.852-3.065 9.779-9.44 14.669-10.421 4.89-.981 13.039 1.635 16.503 3.065 2.241 1.839 7.09 6.621 8.557 11.034 1.467 4.414 3.871-8.378 4.89-15.325l1.833-4.291"/>
  <path stroke="#1E1E1E" stroke-width="3" d="M538.11 598.974c2.414 8.248 6.639 26.436 6.639 30.782s-.805 7.444-1.207 8.45c-4.024 2.414-15.572 6.519-29.575 3.621-17.504-3.621-28.368-4.828-31.99-8.45-2.897-2.897 1.207-12.474 3.622-16.9 3.219-6.438 10.14-20.401 12.071-22.332m-73.636-191.333c3.219 5.432 9.536 19.918 9.054 34.404-.483 14.486-3.421 26.557-4.829 30.782h-95.968c-2.415-5.03-7.243-17.021-7.243-24.747 0-7.725 2.012-20.119 3.018-25.35m98.986 50.097 7.846.604c5.231 10.663 16.176 36.818 18.108 56.132 2.414 24.143 3.018 44.061 3.018 48.286 0 4.225-4.225 30.179-6.036 33.197-1.449 2.414-19.918 5.432-28.972 6.639-10.663.402-35.128.966-47.682 0-15.693-1.207-56.133-.604-57.943-2.414-1.811-1.811-4.829.603-8.45-17.504-2.897-14.486-2.415-40.238-1.811-51.304 3.396-15.782 11.117-50.093 15.007-61.92m.082-.248-.082.248m0 0c.631-2.9 2.497-8.94 4.911-9.905 2.414-.966 5.834-1.61 7.243-1.811"/>
  <path stroke="#1E1E1E" stroke-width="3" d="M394.459 613.459c-3.621 4.628-10.502 16.055-9.054 24.747 1.449 8.691 3.421 14.486 4.225 16.296 17.102.403 51.666.966 53.115 0 1.448-.965 3.42-8.852 4.225-12.675.402-3.822.241-12.795-3.622-18.107-2.011-3.823-6.76-11.709-9.657-12.675m-65.789 1.811c2.816 3.219 8.45 11.468 8.45 18.711 0 7.243-2.012 17.906-3.018 22.332l-2.415 4.225c-13.681-4.628-43.578-13.882-53.718-13.882-.804-5.432-1.69-17.142 1.208-20.522 2.213-3.822 7.122-11.588 9.053-12.071"/>
  <path stroke="#1E1E1E" stroke-width="3" d="M442.141 655.106c2.213.201 6.881.845 7.847 1.811 1.207 1.207 6.036 31.386 5.432 42.854-.604 11.467-1.811 31.989-3.621 39.232-1.811 7.243-6.64 50.097-6.64 56.736 0 5.311-.805 47.28-1.207 67.6.201 4.628-1.69 14.003-10.864 14.486-11.468.604-19.315 1.207-27.161 0-7.847-1.207-18.711-1.811-20.522-4.829-1.81-3.018-4.225-8.45-3.621-16.296.603-7.847 2.414-61.565 1.811-66.997-.604-5.432-.604-47.079-3.622-56.132-3.018-9.054 0-60.961 3.018-68.808.604-3.822 3.259-11.709 6.639-10.26m-18.71 3.017c2.011.403 6.035 1.932 6.035 4.829 0 3.621.604 20.521-1.207 28.368-1.811 7.846-6.036 36.818-11.468 46.475-5.432 9.657-11.468 30.179-12.071 34.404-.604 4.225-16.9 62.168-17.504 65.789-.483 2.897-3.823 18.108-5.432 25.35-.604 4.225-3.622 12.313-10.864 10.865-9.054-1.811-42.251-9.054-45.872-10.865-3.621-1.81-6.639-8.45-4.829-15.089 1.811-6.639 12.072-48.889 12.072-51.304 0-2.414 10.864-38.025 9.657-45.268-.966-5.794 5.633-49.895 9.054-71.222 3.42-12.272 12.433-36.093 18.71-35.61"/>
  <path stroke="#1E1E1E" stroke-width="3" d="M388.423 874.807c-.805 7.847-1.69 24.626 1.207 28.972 3.622 5.432 7.243 13.882 13.279 13.278 6.036-.603 15.693-1.207 20.521-6.639 4.829-5.432 11.468-7.846 10.865-17.504-.483-7.725-.604-13.681-.604-15.693m-161.154-14.486c-3.018 7.445-8.209 24.143-4.829 31.386 4.225 9.054 6.64 10.261 11.468 10.865 4.829.603 30.783-4.225 32.593-7.847 2.213-3.621 6.519-11.709 6.036-15.089-.604-4.225 0-8.45-1.207-9.054"/>
  <path stroke="#1E1E1E" stroke-width="3" d="M433.691 888.086c12.675 16.497 39.353 56.132 44.665 82.689 6.639 33.195 28.368 97.175 31.386 102.005 3.017 4.83-2.415 21.73-12.072 24.75-9.657 3.01-22.936 3.01-27.161 0-4.225-3.02-28.368-64.59-38.628-76.66-10.261-12.07-35.611-68.202-38.026-79.066-2.414-10.865-7.846-31.386-6.639-35.611.966-3.38 1.207-4.627 1.207-4.829m-72.429-12.071c5.835 10.663 18.832 42.129 24.143 82.689 6.639 50.698 3.622 77.258 7.243 88.118 1.207 8.45 3.863 26.08 4.829 28.98 1.207 3.62 3.621 18.71 3.621 19.91 0 1.21.604 10.26-3.621 11.47-4.225 1.21-19.315 7.85-22.333 7.85-3.017 0-17.503 1.21-19.314-7.85-1.811-9.05-16.296-81.48-22.332-91.74-6.036-10.26-24.143-89.934-21.125-102.609-1.61-7.847-3.26-25.592.603-31.386"/>
  <path stroke="#1E1E1E" stroke-width="3" d="M510.345 1073.99c6.237.4 21.367 4.1 24.747 13.28-2.415 9.25-7.726 28.6-9.658 31.98-2.414 4.23-9.053 59.15-19.917 68.21-10.865 9.05-16.297 25.95-27.765 27.76-11.468 1.81-25.954 3.62-27.764-9.65-1.811-13.28-6.64-31.99 0-43.46 6.639-11.47 16.296-31.99 18.711-35.61 1.931-2.9 8.852-15.7 12.071-21.73.402 1.61 1.931 4.83 4.829 4.83 3.621 0 11.468.6 13.278-1.21 4.829-1.01 14.365-5.55 13.882-15.69-.482-10.14-2.011-13.68-2.414-13.88m-155.722 39.83c6.438 1.21 20.039 7.61 22.936 23.54 0 3.38-10.865 13.08-16.297 17.5-6.438 4.63-19.918 14.73-22.332 18.11-3.018 4.23-16.296 19.92-24.143 25.35-7.846 5.43-29.575 21.13-43.457 21.73-13.882.6-22.333 3.62-25.35-3.02-2.415-5.31-.202-16.29 1.207-21.12 3.018-7.25 14.123-24.87 34.404-37.42 20.28-12.56 32.19-20.53 35.61-22.94 1.61 1.21 6.519 3.26 13.279 1.81 8.45-1.81 18.711-4.83 19.918-9.66.966-3.86.402-9.65 0-12.07"/>
  <path stroke="#1E1E1E" stroke-width="3" d="M316.598 1140.98c-.805-4.42-1.932-13.64 0-15.09m164.776-19.91c-1.006-1.81-3.622-5.68-6.036-6.64"/>
</svg>
