<svg xmlns="http://www.w3.org/2000/svg" xmlns:xlink="http://www.w3.org/1999/xlink" version="1.1" id="Layer_1" x="0px" y="0px" enable-background="new 0 0 464 512" xml:space="preserve" viewBox="144.16 91.84 238.19 348.43">
<path fill="#000000" opacity="1.000000" stroke="none" d=" M332.229675,293.983276   C331.214691,303.616364 331.214691,303.616394 339.900848,307.948059   C372.803436,324.356110 378.069214,369.597992 349.630371,392.828278   C346.503876,395.382202 346.151794,397.128174 348.655304,400.012665   C350.506317,402.145355 352.179016,404.448700 353.777405,406.781372   C356.828674,411.234497 360.241943,414.697449 365.826355,416.472778   C373.787506,419.003601 377.567078,425.797272 377.282135,433.911438   C377.132385,438.176971 375.387848,440.357208 370.879364,440.265137   C363.717072,440.118896 356.549530,440.250458 349.384613,440.204803   C343.580231,440.167786 341.626251,438.529541 342.028473,432.823822   C342.300415,428.966431 341.108948,426.176422 338.804016,423.324127   C334.617706,418.143799 330.681610,412.760101 326.683105,407.429749   C325.198669,405.450806 323.519623,404.253174 320.828247,404.362000   C289.186127,405.641388 257.528839,404.654846 225.878723,404.889282   C217.557022,404.950958 209.213638,405.421448 200.909760,404.442383   C198.670349,404.178345 197.181686,404.979218 195.836853,406.786621   C190.964966,413.334229 186.010803,419.822937 180.967346,426.239288   C179.431366,428.193329 179.765717,430.183716 179.877411,432.367462   C180.189529,438.469635 178.515518,440.190613 172.510223,440.227844   C165.511902,440.271271 158.512970,440.280609 151.514633,440.243164   C145.763123,440.212372 143.710358,438.035248 144.244080,432.233368   C144.965759,424.388306 148.910477,418.423187 156.445862,416.137238   C161.346298,414.650635 164.458252,411.912445 167.170029,407.955292   C169.803741,404.112091 172.673721,400.416870 175.635681,396.817780   C177.365494,394.715881 177.523651,393.150146 175.959732,390.690277   C164.882812,373.267670 168.325241,355.004639 184.782898,342.771729   C185.844620,341.982544 187.763718,341.199127 187.451431,340.047455   C186.031235,334.809906 189.091400,329.562927 187.542953,324.574951   C184.583359,315.041260 180.947662,305.719543 177.796463,296.242035   C176.794968,293.229950 175.203064,291.906494 172.003967,292.097137   C168.683731,292.295013 165.333054,292.275238 162.010925,292.084656   C155.812012,291.729095 151.002441,288.121918 149.356384,282.450897   C147.631882,276.509613 148.825134,271.181030 153.775040,267.168030   C155.529327,265.745789 156.567169,264.716431 155.295486,262.281189   C149.338272,250.873352 151.500717,239.652847 156.553223,228.643051   C164.934799,210.378906 177.326813,195.010162 191.302414,180.786469   C204.089371,167.772552 217.578598,155.705353 234.472717,148.142670   C239.377243,145.947144 244.472504,144.734695 249.923203,144.618683   C259.424194,144.416428 266.596558,148.246628 271.884705,156.040604   C278.331604,165.542450 284.530731,175.215988 292.986847,183.197754   C307.019379,196.443115 324.063995,199.662720 342.493256,198.583252   C344.846405,198.445419 346.387726,196.875885 348.011932,195.436325   C353.744324,190.355713 359.409851,185.195374 365.256317,180.249161   C370.539001,175.779892 375.921326,175.949875 379.869995,180.397293   C383.781067,184.802353 383.038818,190.697800 377.920593,195.293076   C374.364838,198.485535 370.675323,201.035324 372.969727,207.247574   C374.607330,211.681366 370.473694,217.012863 365.453430,218.776932   C361.693451,220.098145 357.846985,221.478485 353.929382,221.985977   C343.987488,223.273834 339.205048,231.680786 332.261871,237.084183   C331.632477,237.574020 331.450958,238.882294 331.395416,239.830078   C330.586853,253.623947 329.957703,267.429626 329.001434,281.212769   C328.681702,285.820892 333.035980,288.964203 332.229675,293.983276  M158.364227,245.816116   C158.281448,259.058624 162.916031,265.417999 175.506073,269.235901   C179.963806,270.587677 184.486923,271.729523 188.922653,273.147217   C209.563995,279.744507 227.657867,290.023102 239.897736,308.689087   C250.476440,324.821808 256.185059,342.847961 260.292297,361.467194   C261.599579,367.393646 263.967407,370.081177 268.391022,369.719879   C272.756836,369.363281 274.976562,366.071594 274.950470,360.217926   C274.905823,350.200623 273.594391,340.343872 271.675812,330.523407   C267.338898,308.324554 258.679840,288.280090 242.938385,271.673950   C232.117203,260.258392 219.034393,252.092209 204.918686,245.481308   C199.972351,243.164795 199.223572,241.369934 202.161819,236.776733   C202.967255,235.517654 203.942596,234.367523 204.835846,233.164322   C217.965714,215.478775 235.539139,203.407501 254.787445,193.375275   C258.636169,191.369308 261.034973,192.422165 263.950775,195.212585   C295.237152,225.153610 328.125336,223.102020 362.464813,213.040573   C365.164246,212.249619 367.193237,210.196564 366.544769,207.007324   C365.891144,203.792664 363.323883,202.939880 360.420715,203.197662   C355.620911,203.623840 350.842560,204.287704 346.044861,204.742401   C320.715210,207.143036 298.465790,201.412308 281.648804,180.752121   C276.374451,174.272400 271.802002,167.344254 267.077942,160.492874   C261.300812,152.114212 254.015747,149.458771 244.099792,151.792084   C239.693802,152.828827 235.544861,154.490540 231.611496,156.745148   C213.007553,167.408997 197.735657,181.941330 184.077438,198.214401   C172.462296,212.053268 161.969696,226.634201 158.364227,245.816116  M176.421112,375.804901   C180.676956,391.281616 189.362000,397.972809 205.301849,397.980438   C242.287064,397.998108 279.272278,397.995941 316.257507,397.992950   C319.753235,397.992676 323.241394,398.011597 326.696411,397.225494   C345.603149,392.923798 359.070129,377.842712 361.557953,358.113159   C363.784454,340.455963 354.185883,322.500702 337.351776,314.103912   C329.664032,310.269287 324.363007,305.838501 325.549500,296.201233   C326.309631,290.027283 326.107880,290.718842 315.940002,289.413025   C310.969330,288.774719 311.289032,292.242035 311.077057,295.488708   C310.371033,306.302307 308.006165,309.380981 297.808319,312.813110   C292.287476,314.671143 286.804901,316.739258 281.156219,318.090363   C276.748657,319.144653 276.333069,321.161346 277.262390,325.166229   C280.091797,337.359100 281.236450,349.786072 281.317871,362.304565   C281.354797,367.980286 279.041107,372.319427 273.863464,374.846466   C265.063416,379.141510 255.532730,373.832245 253.811203,363.535645   C252.155930,353.635345 249.335541,344.100708 245.805847,334.726685   C244.431091,331.075653 242.690887,329.857239 238.689621,331.318481   C232.290710,333.655365 225.699417,335.502258 219.116302,337.286346   C213.897507,338.700684 210.556870,337.287903 208.684036,332.282349   C207.047531,327.908386 204.644562,327.607819 201.004410,329.257996   C199.339630,330.012665 197.598862,330.600342 195.889694,331.256317   C193.812164,332.053650 193.071213,333.345245 194.014725,335.544830   C196.284866,340.837189 194.028763,344.648254 189.622406,347.372894   C179.280853,353.767639 175.298492,363.119476 176.421112,375.804901  M250.863861,270.658203   C261.725952,283.091858 269.040619,297.506561 274.181519,313.536835   C282.985596,310.728943 291.361633,308.093964 299.706848,305.364655   C301.326385,304.834930 302.907593,303.679840 303.191864,302.017426   C304.434296,294.750763 306.478729,287.748566 308.502045,280.664795   C310.737946,272.836639 310.262512,264.194427 310.631317,255.891830   C310.781158,252.518829 311.685669,249.027390 310.474304,245.688766   C307.909393,245.138809 305.622253,245.529358 303.300842,245.714355   C295.516571,246.334656 287.725677,247.016129 279.924866,247.238983   C273.543121,247.421295 268.932892,242.978394 268.970276,237.388794   C269.006592,231.954666 273.230042,228.374176 279.513489,227.587418   C288.307495,226.486313 297.273254,227.417480 307.341858,225.121780   C288.443298,221.484833 273.355347,213.129745 260.321198,201.002136   C258.122559,198.956421 256.487762,199.994873 254.541656,200.986649   C240.175583,208.307861 227.249252,217.593140 216.352798,229.512558   C213.531952,232.598267 210.274734,235.555389 208.832947,240.087479   C224.563644,247.799988 238.936096,256.979126 250.863861,270.658203  M219.215591,330.705292   C226.255188,328.423676 233.294769,326.142090 240.795624,323.710999   C236.942795,316.033691 232.797668,309.523987 227.744293,303.540070   C220.831329,295.354218 212.815353,290.259399 201.431198,292.031738   C197.752365,292.604553 196.778961,293.453613 198.120712,296.978333   C200.777237,303.957031 202.925400,311.139130 205.799347,318.021851   C207.859756,322.956207 213.807907,325.128845 215.603485,330.513763   C215.729263,330.890991 217.445099,330.738068 219.215591,330.705292  M323.747925,258.615173   C324.054993,254.972977 324.752045,251.313431 324.590759,247.692093   C324.215088,239.258209 325.906067,231.898987 333.463104,226.931702   C333.642273,226.813919 333.601288,226.361221 333.694031,225.915588   C328.358124,226.547836 322.604828,225.120529 318.342346,229.969498   C317.678833,230.724304 316.225586,230.947205 315.094543,231.101929   C308.676697,231.979813 302.289612,233.088364 295.786255,233.300400   C290.304230,233.479126 284.829712,233.907425 279.354279,234.261902   C277.229950,234.399414 275.824249,235.528305 275.920746,237.719162   C276.007263,239.683350 277.499542,240.586304 279.326965,240.708389   C280.981873,240.818970 282.657715,240.789902 284.314087,240.674728   C293.433197,240.040619 302.543304,239.259094 311.668365,238.733795   C317.568848,238.394104 318.541534,239.442795 318.121246,245.156265   C317.670319,251.285950 317.029510,257.401428 316.521942,263.527283   C316.096802,268.658508 315.814087,273.802338 315.333679,278.927948   C315.039642,282.065430 316.675812,282.954865 319.415375,283.211578   C322.436554,283.494659 322.566193,281.666595 322.666077,279.480896   C322.969452,272.840393 323.360291,266.203918 323.747925,258.615173  M199.267273,319.049835   C196.427292,311.068512 193.551590,303.099640 190.756989,295.102448   C187.715942,286.400024 187.750381,286.399628 196.993317,285.054413   C197.663788,284.956818 198.640182,285.378174 199.048096,284.100830   C192.839203,281.213165 186.453918,278.960480 179.855301,277.259399   C174.878296,275.976349 169.686844,275.147308 165.308945,272.279114   C162.523300,270.454102 160.139221,270.364716 157.652130,272.495178   C155.231537,274.568726 154.693314,277.243591 155.459946,280.187775   C156.273438,283.311890 158.438461,284.852783 161.644028,284.984253   C166.125198,285.167999 170.632278,285.749329 175.079193,285.444489   C179.401260,285.148163 181.361908,286.898682 182.665924,290.781372   C186.049438,300.855804 189.727356,310.831573 193.310730,320.838501   C193.886734,322.447052 194.595444,324.046417 196.789429,323.625732   C198.891678,323.222656 200.080154,322.094971 199.267273,319.049835  M352.064209,433.692291   C356.879028,433.691284 361.697601,433.571625 366.507507,433.724426   C370.853699,433.862518 371.283325,431.855469 369.852875,428.440002   C368.195190,424.482056 363.276825,421.195099 359.240906,421.436523   C354.691620,421.708649 349.656128,425.843018 348.644257,430.065216   C348.104095,432.319092 348.712860,433.648041 352.064209,433.692291  M171.985550,427.556061   C165.648361,419.368256 156.476089,419.520966 152.185333,427.948517   C151.233353,429.818268 149.930817,432.985901 152.897491,433.280457   C159.529495,433.938904 166.271835,433.486359 172.699814,433.486359   C173.363052,431.009460 172.685669,429.623901 171.985550,427.556061  M185.201660,399.553864   C184.008011,398.774292 182.819092,398.224640 181.730011,399.705658   C177.725861,405.150879 173.017929,410.101898 169.234970,416.926056   C172.772568,417.033997 174.152588,422.913055 177.608871,419.363190   C182.403564,414.438721 186.202469,408.544708 190.612625,402.826019   C188.569580,401.609222 187.158264,400.768677 185.201660,399.553864  M345.707428,406.757294   C339.672394,398.259521 339.668579,398.258575 331.861298,403.582947   C336.317169,409.503296 340.762848,415.410126 345.192200,421.295258   C353.022095,416.013794 353.021942,416.013916 347.674744,409.284515   C347.158234,408.634552 346.645325,407.981720 345.707428,406.757294  M373.800171,184.122314   C372.411530,183.472336 371.198090,183.884155 370.114502,184.797562   C365.460693,188.720566 360.821381,192.660812 356.176788,196.594772   C358.606598,196.667603 360.707031,196.641235 362.812744,196.763687   C366.121368,196.956100 374.682373,191.064774 375.507538,188.002548   C375.886230,186.597168 375.573853,185.371628 373.800171,184.122314  z"/>
<path fill="#000000" opacity="1.000000" stroke="none" d=" M324.548370,113.696045   C329.985260,128.925369 325.575439,144.442444 313.525391,153.341827   C300.644653,162.854721 284.393585,162.802353 271.740082,153.207230   C260.238739,144.485809 255.625687,128.047195 260.742889,114.018669   C265.352753,101.381012 278.294250,92.163429 291.865295,91.851662   C305.995331,91.527069 318.761108,99.951210 324.548370,113.696045  M308.397125,148.980972   C319.682068,140.490295 323.223297,128.310562 318.163910,115.388931   C313.046875,102.319946 297.793030,95.555389 283.801056,100.150154   C270.534729,104.506615 262.430756,119.072617 265.832672,132.359421   C270.375519,150.102081 290.133423,160.122711 308.397125,148.980972  z"/>
<path fill="#000000" opacity="1.000000" stroke="none" d=" M218.015625,391.359955   C206.040436,387.767120 198.741364,379.056213 197.760452,367.597748   C196.877136,357.279297 202.780563,346.894806 212.171463,342.247864   C222.254440,337.258423 233.655807,338.762482 241.853256,346.398193   C248.523300,352.611145 251.368927,360.475769 249.931839,369.411804   C249.363251,372.947357 250.566742,374.205658 253.314148,375.399475   C255.982132,376.558746 258.691986,376.889282 261.564453,376.939819   C266.202209,377.021393 270.886841,376.315186 275.473694,377.578644   C279.788239,378.767151 281.851135,381.940552 281.875397,386.063019   C281.898468,389.977264 280.007080,393.327118 275.870605,394.265778   C269.320557,395.752167 262.601044,395.844177 256.103912,394.248993   C251.470001,393.111328 249.408478,389.314850 250.141113,384.639038   C250.617981,381.595612 249.704193,380.247650 246.651611,379.852020   C239.374435,388.768707 230.504471,394.064392 218.015625,391.359955  M236.413467,381.042999   C237.528900,379.873932 239.098953,379.035095 239.281235,377.102478   C238.218414,375.184448 236.111374,374.848267 234.378738,373.992401   C230.806793,372.227997 227.148376,370.637329 223.591507,368.844330   C221.908310,367.995819 220.308258,366.732239 221.377609,364.537201   C222.368500,362.503235 224.243301,362.507141 226.114105,363.262787   C228.577301,364.257751 230.955963,365.492584 233.470734,366.321655   C236.679428,367.379547 239.341843,370.027527 242.981232,369.901428   C246.083832,356.642639 234.482788,343.515137 221.970413,345.847137   C212.990585,347.520752 206.870880,352.443756 204.721390,361.599426   C202.923050,369.259308 206.129013,377.361969 213.050613,381.996674   C220.681625,387.106537 228.363327,386.507111 236.413467,381.042999  M270.008698,388.685455   C272.097778,388.538452 275.053497,389.046600 275.114044,386.151215   C275.174652,383.256348 272.211609,383.514435 270.126678,383.456085   C266.811157,383.363312 263.485077,383.363831 260.173523,383.527710   C258.489807,383.611053 256.615967,384.170868 256.807465,386.348511   C256.962036,388.106018 258.582306,388.618225 260.174072,388.649445   C263.160522,388.708038 266.148529,388.686371 270.008698,388.685455  z"/>
</svg>