<svg xmlns="http://www.w3.org/2000/svg" width="333" height="368" fill="none" viewBox="0 0 333 368">
  <path stroke="#000" stroke-width="8" d="M211.782 363.34h.064c1.6-10.327 3.413-19.49 5.539-26.87 1.18-4.093 2.481-7.729 3.941-10.75 1.438-2.979 3.151-5.615 5.272-7.462l1.129-.984h1.498c8.887 0 17.778-.086 26.678-.172h.049c8.74-.085 17.489-.17 26.212-.173 10.067-2.115 16.28-6.621 20.855-14.177 1.794-3.012 1.81-6.835.532-11.978-.63-2.534-1.521-5.188-2.505-8.023l-.396-1.139c-.85-2.435-1.742-4.996-2.487-7.536-1.606-5.184.024-9.725 2.249-13.29 1.656-2.655 3.939-5.197 5.8-7.27.449-.5.874-.973 1.26-1.414-.282-.6-.945-1.429-2.116-2.666l-.485-.505c-.939-.974-2.21-2.292-2.993-3.53-.487-.77-1.152-2.045-1.138-3.628.015-1.852.934-3.336 2.18-4.327a62.804 62.804 0 0 1 2.309-1.751l.477-.351c.861-.637 1.547-1.165 2.123-1.698 1.057-.977 1.563-1.796 1.737-2.88.086-.784-.255-1.563-2.038-3.86l-.262-.336c-1.453-1.855-3.773-4.818-4.002-8.817-.123-.52-.332-1.162-.633-2.016l-.17-.479c-.293-.824-.644-1.809-.918-2.767-.592-2.074-1.397-5.824 1.094-8.94l.017-.022.018-.022c2.517-3.058 5.8-3.974 8.433-4.429a65.195 65.195 0 0 1 2.499-.362c.437-.058.844-.112 1.182-.161.968-.143 1.81-.301 2.578-.525 1-.585 2.153-1.174 3.231-1.725.371-.19.734-.375 1.078-.554 1.622-.843 3.103-1.671 4.344-2.597 1.241-.925 2.048-1.808 2.499-2.666.407-.774.625-1.709.383-3.042l-.002-.009c-.502-2.799-2.492-6.867-5.899-12.065-3.329-5.078-7.704-10.791-12.496-16.796-2.197-2.754-4.488-5.576-6.795-8.418-7.62-9.386-15.42-18.994-20.62-27.113l-1.173-1.832.9-1.98c2.548-5.609 3.233-10.912 2.533-16.224-7.227-54.212-58.732-107.7-153.263-97.825-53.63 5.601-91.74 29.416-111.756 63.373-20.027 33.978-22.356 78.825-2.95 127.318l.001.001c3.125 7.817 8.47 15.454 14.383 23.9 1.028 1.47 2.074 2.963 3.128 4.487 6.952 10.049 14.086 21.173 17.48 34.017 1.158 4.268 1.265 11.186.85 19.168-.425 8.172-1.438 18.019-2.802 28.468-2.488 19.063-6.166 40.318-9.67 57.424h171.034Z"/>
</svg>
